<?xml version="1.0" standalone="no"?><svg xmlns="http://www.w3.org/2000/svg" viewBox="0 0 1440 320"><path fill="#247158" fill-opacity="1" d="M0,192L21.8,165.3C43.6,139,87,85,131,74.7C174.5,64,218,96,262,117.3C305.5,139,349,149,393,181.3C436.4,213,480,267,524,261.3C567.3,256,611,192,655,181.3C698.2,171,742,213,785,197.3C829.1,181,873,107,916,96C960,85,1004,139,1047,144C1090.9,149,1135,107,1178,112C1221.8,117,1265,171,1309,186.7C1352.7,203,1396,181,1418,170.7L1440,160L1440,320L1418.2,320C1396.4,320,1353,320,1309,320C1265.5,320,1222,320,1178,320C1134.5,320,1091,320,1047,320C1003.6,320,960,320,916,320C872.7,320,829,320,785,320C741.8,320,698,320,655,320C610.9,320,567,320,524,320C480,320,436,320,393,320C349.1,320,305,320,262,320C218.2,320,175,320,131,320C87.3,320,44,320,22,320L0,320Z"></path></svg>